# xmcd
#
# Track frame offsets: 
#        150
#        26768
#        45225
#        73973
#        95932
#        114034
#        138152
#        162570
#        182758
#        201920
#        225607
#        249828
#
# Disc length: 3604 seconds
#
# Revision: 0
# Processed by: cddbd v1.5.2PL0 Copyright (c) Steve Scherf et al.
# Submitted via: ExactAudioCopy v1.0b3
#
DISCID=a10e120c
DTITLE=Thanh Nhan - Goi Nguoi Yeu Dau
DYEAR=1984
DGENRE=
TTITLE0=Goi nguoi yeu dau
TTITLE1=Anh ve voi em
TTITLE2=Ai ve song Tuong
TTITLE3=Tinh chet theo mua dong
TTITLE4=Mua thu Dong Kinh
TTITLE5=Giot sau trinh nu
TTITLE6=Hung ho
TTITLE7=Co do yeu dau
TTITLE8=Buc tam thu
TTITLE9=Mot ban tay
TTITLE10=Huyen thoai mot chieu mua
TTITLE11=Lanh lung
EXTD=
EXTT0=
EXTT1=
EXTT2=
EXTT3=
EXTT4=
EXTT5=
EXTT6=
EXTT7=
EXTT8=
EXTT9=
EXTT10=
EXTT11=
PLAYORDER=
